<svg xmlns="http://www.w3.org/2000/svg" viewBox="0 0 512 512">
  <g fill="#ffffff">
    <path d="M205 120 h40 v55 c0 10 20 25 20 45 v145 a12 12 0 0 1 -12 12 h-56 a12 12 0 0 1 -12 -12 v-145 c0 -20 20 -35 20 -45 z"/>
    <path d="M278 180 h116 v28 a58 58 0 0 1 -116 0 z"/>
    <rect x="330" y="260" width="12" height="95"/>
    <rect x="300" y="350" width="72" height="16" rx="8"/>
  </g>
  <g fill="none" stroke="#e02020" stroke-width="52">
    <circle cx="256" cy="256" r="210"/>
    <line x1="110" y1="110" x2="402" y2="402" stroke-linecap="round"/>
  </g>
</svg>
